<?xml version="1.0" encoding="utf-8"?>
<!-- Svg Vector Icons : http://www.onlinewebfonts.com/icon -->
<!DOCTYPE svg PUBLIC "-//W3C//DTD SVG 1.1//EN" "http://www.w3.org/Graphics/SVG/1.1/DTD/svg11.dtd">
<svg version="1.1" xmlns="http://www.w3.org/2000/svg" xmlns:xlink="http://www.w3.org/1999/xlink" x="0px" y="0px" viewBox="0 0 1000 1000" enable-background="new 0 0 1000 1000" xml:space="preserve">
<metadata> Svg Vector Icons : http://www.onlinewebfonts.com/icon </metadata>
<g><g transform="matrix(1 0 0 -1 0 1638)"><path d="M965.6,893H818.7c-7,0-12.9,2.4-17.7,7.2s-7.2,10.5-7.2,17.2s2.4,12.4,7.2,17.2s10.7,7.2,17.7,7.2h146.9c6.7,0,12.4-2.4,17.2-7.2s7.2-10.5,7.2-17.2s-2.4-12.4-7.2-17.2S972.3,893,965.6,893L965.6,893z M622.5,893H279.4c-6.7,0-12.4,2.4-17.2,7.2s-7.2,10.5-7.2,17.2v343.1c0,6.7,2.4,12.4,7.2,17.2s10.5,7.2,17.2,7.2s12.4-2.4,17.2-7.2s7.2-10.5,7.2-17.2V941.8h318.7c6.7,0,12.4-2.4,17.2-7.2s7.2-10.5,7.2-17.2s-2.4-12.4-7.2-17.2S629.2,893,622.5,893L622.5,893z M279.4,1431.8c-6.7,0-12.4,2.4-17.2,7.2s-7.2,10.5-7.2,17.2v146.9c0,7,2.4,12.9,7.2,17.7s10.5,7.2,17.2,7.2s12.4-2.4,17.2-7.2s7.2-10.7,7.2-17.7v-146.9c0-6.7-2.4-12.4-7.2-17.2S286.1,1431.8,279.4,1431.8L279.4,1431.8z M720.6,648c-6.7,0-12.4,2.4-17.2,7.2s-7.2,10.5-7.2,17.2v661.3H34.4c-6.7,0-12.4,2.4-17.2,7.2s-7.2,10.5-7.2,17.2c0,7,2.4,12.9,7.2,17.7s10.5,7.2,17.2,7.2h686.2c6.7,0,12.4-2.4,17.2-7.2s7.2-10.7,7.2-17.7V672.4c0-6.7-2.4-12.4-7.2-17.2S727.3,648,720.6,648L720.6,648z"/></g></g>
</svg>